<svg xmlns="http://www.w3.org/2000/svg" viewBox="0 0 98 96" width="48px" height="48px"><path fill-rule="evenodd" clip-rule="evenodd" d="M48.854 0C21.839 0 0 22 0 49.217c0 21.756 13.993 40.172 33.405 46.69 2.427.49 3.316-1.059 3.316-2.362 0-1.141-.08-5.052-.08-9.127-13.59 2.934-16.42-5.867-16.42-5.867-2.184-5.704-5.42-7.17-5.42-7.17-4.448-3.015.324-2.913.324-2.913 4.93.326 7.523 5.052 7.523 5.052 4.367 7.496 11.404 5.378 14.235 4.074.412-3.162.986-5.378 2.347-6.61-10.863-1.245-22.265-5.42-22.265-24.283 0-5.378 1.94-9.778 5.014-13.2-.485-1.245-2.11-6.28.484-13.018 0 0 4.125-1.304 13.427 5.052a46.97 46.97 0 0 1 12.214-1.63c4.125 0 8.33.571 12.213 1.63 9.302-6.356 13.427-5.052 13.427-5.052 2.593 6.738.97 11.773.484 13.018 3.155 3.422 5.015 7.822 5.015 13.2 0 18.863-11.404 23.038-22.324 24.283 1.002.86 1.9 2.53 1.9 5.103 0 3.692-.04 6.66-.04 7.552 0 1.304.89 2.853 3.316 2.362 19.412-6.52 33.405-24.935 33.405-46.69C97.707 22 75.868 0 48.854 0z" fill="#fff"/></svg>
